<?xml version="1.0" encoding="utf-8"?>
<!-- Generator: Adobe Illustrator 22.0.1, SVG Export Plug-In . SVG Version: 6.00 Build 0)  -->
<svg version="1.1" id="Layer_1" xmlns="http://www.w3.org/2000/svg" xmlns:xlink="http://www.w3.org/1999/xlink" x="0px" y="0px"
	 viewBox="0 0 1000 1000" style="enable-background:new 0 0 1000 1000;" xml:space="preserve">
<style type="text/css">
	.st0{fill:#54C9B6;}
	.st1{fill:#36B09B;}
</style>
<path class="st0" d="M818.7,974.2H184.2c-86.3,0-156.9-70.6-156.9-156.9V182.7c0-86.3,70.6-156.9,156.9-156.9h634.6
	c86.3,0,156.9,70.6,156.9,156.9v634.6C975.6,903.6,905,974.2,818.7,974.2z"/>
<path class="st1" d="M801.7,252.7L712,172.5c-4.9-4.4-12.5-4-16.9,1L197.3,730.4c-4.4,4.9-4,12.5,1,16.9l89.8,80.2
	c4.9,4.4,12.5,4,16.9-1l497.7-556.9C807.1,264.7,806.7,257.1,801.7,252.7z"/>
<path class="st1" d="M350.9,354.3c-0.6,0-1.2-0.1-1.8-0.4l-62.9-33.1l-62.9,33.1c-0.6,0.3-1.2,0.4-1.8,0.4c-0.8,0-1.6-0.2-2.2-0.7
	c-1.2-0.9-1.8-2.3-1.5-3.7l12-70L179,230.3c-1-1-1.4-2.5-1-3.9c0.4-1.4,1.6-2.4,3.1-2.6l70.3-10.2l31.4-63.7c0.6-1.3,2-2.1,3.4-2.1
	c1.4,0,2.8,0.8,3.4,2.1l31.4,63.7l70.3,10.2c1.4,0.2,2.6,1.2,3.1,2.6c0.4,1.4,0.1,2.9-1,3.9l-50.9,49.6l12,70
	c0.2,1.4-0.3,2.9-1.5,3.7C352.5,354.1,351.7,354.3,350.9,354.3z"/>
<path class="st1" d="M516.7,225.7c-0.3,0-0.6-0.1-0.9-0.2l-31.2-16.4l-31.2,16.4c-0.3,0.1-0.6,0.2-0.9,0.2c-0.4,0-0.8-0.1-1.1-0.4
	c-0.6-0.4-0.9-1.1-0.8-1.8l6-34.8l-25.3-24.6c-0.5-0.5-0.7-1.3-0.5-1.9c0.2-0.7,0.8-1.2,1.5-1.3l34.9-5.1l15.6-31.6
	c0.3-0.6,1-1.1,1.7-1.1c0.7,0,1.4,0.4,1.7,1.1l15.6,31.6l34.9,5.1c0.7,0.1,1.3,0.6,1.5,1.3c0.2,0.7,0,1.4-0.5,1.9l-25.3,24.6l6,34.8
	c0.1,0.7-0.2,1.4-0.8,1.8C517.4,225.6,517,225.7,516.7,225.7z"/>
<path class="st1" d="M453.9,332.9c-0.2,0-0.4-0.1-0.6-0.2l-22.5-11.9l-22.5,11.9c-0.2,0.1-0.4,0.2-0.6,0.2c-0.3,0-0.6-0.1-0.8-0.3
	c-0.4-0.3-0.6-0.8-0.5-1.3l4.3-25.1l-18.2-17.8c-0.4-0.4-0.5-0.9-0.3-1.4c0.2-0.5,0.6-0.9,1.1-0.9l25.2-3.7l11.3-22.8
	c0.2-0.5,0.7-0.8,1.2-0.8s1,0.3,1.2,0.8l11.3,22.8l25.2,3.7c0.5,0.1,0.9,0.4,1.1,0.9c0.2,0.5,0,1-0.3,1.4l-18.2,17.8l4.3,25.1
	c0.1,0.5-0.1,1-0.5,1.3C454.4,332.8,454.2,332.9,453.9,332.9z"/>
<path class="st0" d="M750.4,254.3l-34.3-30.7c-4.9-4.4-12.5-4-16.9,1L591.1,345.5c-4.4,4.9-4,12.5,1,16.9l34.3,30.7
	c4.9,4.4,12.5,4,16.9-1l108.1-120.9C755.8,266.3,755.4,258.7,750.4,254.3z"/>
</svg>
